<?xml version="1.0" encoding="iso-8859-1"?>
<!-- Generator: Adobe Illustrator 16.0.0, SVG Export Plug-In . SVG Version: 6.00 Build 0)  -->
<!DOCTYPE svg PUBLIC "-//W3C//DTD SVG 1.1//EN" "http://www.w3.org/Graphics/SVG/1.1/DTD/svg11.dtd">
<svg version="1.1" id="Capa_1" xmlns="http://www.w3.org/2000/svg" xmlns:xlink="http://www.w3.org/1999/xlink" x="0px" y="0px"
	 width="34.342px" height="34.342px" viewBox="0 0 34.342 34.342" style="enable-background:new 0 0 34.342 34.342;"
	 xml:space="preserve">
<g>
	<g>
		<path d="M15.524,29.865l0.383,0.924c-4.329-0.346-8.333-2.958-10.273-7.121l-0.872,2.113l-0.809-0.333l1.446-3.51l3.508,1.445
			l-0.333,0.811l-2.142-0.882C8.171,27.029,11.682,29.406,15.524,29.865z M16.941,15.748c0.072,0.395-0.018,0.772-0.256,1.062
			c-0.236,0.289-0.587,0.452-0.986,0.458h-0.02L1.674,17.341c-0.404,0.002-0.761-0.156-1.005-0.443
			c-0.244-0.288-0.341-0.667-0.272-1.067l0.501-2.905c0.133-0.769,0.834-1.5,1.597-1.665l2.208-0.479l0,0l1.193-0.258
			C5.395,9.92,4.994,9.189,4.705,8.451c-0.466-0.158-0.941-0.564-1.085-1.1C3.43,6.65,3.603,6.019,4.029,5.732
			C3.462,4.875,3.778,0.906,6.792,0.217C7.731,0.003,8.47,0.101,9.038,0.351C9.127,0.222,9.345-0.006,9.767,0
			c0,0-0.233,0.306-0.15,0.513c0.511-0.176,1.191-0.158,2.018,0.306c1.847,1.038,1.671,3.025,1.291,4.245l0.008,0.503
			c0.447,0.268,0.646,0.901,0.479,1.614c-0.125,0.538-0.582,0.958-1.041,1.134c-0.271,0.76-0.659,1.519-1.152,2.146l3.577,0.734
			c0.764,0.158,1.472,0.882,1.613,1.649L16.941,15.748z M10.779,10.955c-0.479,0.469-1.037,0.81-1.67,0.938l0.35,0.315l-0.543,0.501
			l0.416,1.706l2.709-3.201L10.779,10.955z M6.615,10.372c0.079,0.083,0.162,0.164,0.246,0.238c0.093,0.082,0.189,0.158,0.289,0.229
			c0.425,0.299,0.905,0.483,1.438,0.474c0.521-0.009,0.988-0.208,1.399-0.52c0.096-0.074,0.189-0.15,0.278-0.234
			c0.082-0.076,0.161-0.158,0.237-0.242c0.661-0.732,1.126-1.737,1.38-2.555c0.245,0.042,0.803-0.274,0.907-0.721
			c0.107-0.46-0.01-0.887-0.26-0.953c-0.024-0.006-0.048-0.002-0.072,0c-0.02,0.019-0.036,0.025-0.043,0.016
			c0.001-0.003,0-0.014,0.002-0.018c-0.038,0.007-0.077,0.022-0.113,0.042l-0.01-0.567c-0.275-0.713-0.98-1.865-2.008-1.962
			C9.975,4.32,9.342,4.872,8.296,4.549C5.257,3.613,4.729,4.724,4.677,5.305l0.004,0.234c0.001,0.01,0.002,0.023,0.004,0.032
			c0,0.002-0.002,0.004-0.003,0.006l0.012,0.684C4.616,6.223,4.541,6.208,4.466,6.229c-0.249,0.075-0.349,0.505-0.227,0.96
			c0.12,0.446,0.693,0.746,0.938,0.689C5.457,8.698,5.943,9.671,6.615,10.372z M5.138,11.273l2.795,3.141l0.396-1.7l-0.548-0.495
			l0.329-0.304c-0.662-0.103-1.25-0.437-1.756-0.905L5.138,11.273z M16.38,15.851l-0.532-2.901
			c-0.098-0.536-0.632-1.083-1.168-1.193l-2.003-0.412l-3.805,4.494c-0.053,0.062-0.13,0.099-0.212,0.101H8.659
			c-0.083,0.001-0.162-0.034-0.216-0.096L4.5,11.412L2.616,11.82c-0.534,0.115-1.063,0.668-1.156,1.206l-0.502,2.906
			c-0.039,0.229,0.012,0.443,0.146,0.602c0.133,0.156,0.334,0.242,0.568,0.241l2.737-0.015l-0.008-1.499
			c0-0.157,0.124-0.283,0.28-0.286c0.001,0,0.002,0,0.003,0c0.157-0.002,0.286,0.126,0.287,0.283l0.007,1.498l7.395-0.038
			l-0.007-1.499c0-0.156,0.124-0.283,0.279-0.286c0.001,0,0.002,0,0.004,0c0.157-0.001,0.286,0.125,0.287,0.283l0.007,1.498
			l2.735-0.014l0.017,0.284L15.69,16.7c0.229-0.004,0.427-0.094,0.556-0.25C16.374,16.292,16.422,16.079,16.38,15.851z
			 M33.687,33.812c-0.236,0.288-0.588,0.45-0.986,0.458H32.68l-14.005,0.071c-0.403,0.002-0.761-0.154-1.005-0.441
			c-0.244-0.288-0.341-0.667-0.272-1.067l0.501-2.905c0.133-0.769,0.834-1.5,1.598-1.665l2.208-0.479l0,0l1.192-0.258
			c-0.502-0.604-0.902-1.335-1.191-2.073c-0.467-0.158-0.941-0.564-1.085-1.1c-0.189-0.701-0.018-1.332,0.409-1.619
			c-0.566-0.857-0.251-4.827,2.764-5.517c0.938-0.214,1.678-0.116,2.245,0.134c0.09-0.129,0.308-0.357,0.729-0.351
			c0,0-0.233,0.306-0.15,0.513c0.512-0.176,1.19-0.158,2.019,0.307c1.848,1.039,1.671,3.024,1.291,4.246l0.009,0.503
			c0.446,0.268,0.646,0.899,0.479,1.612c-0.125,0.538-0.582,0.958-1.041,1.136c-0.271,0.76-0.659,1.519-1.152,2.146l3.577,0.734
			c0.765,0.158,1.473,0.882,1.613,1.647l0.53,2.901C34.014,33.145,33.923,33.521,33.687,33.812z M27.779,27.955
			c-0.479,0.469-1.037,0.81-1.67,0.938l0.351,0.313l-0.543,0.501l0.416,1.706l2.709-3.201L27.779,27.955z M23.615,27.372
			c0.079,0.083,0.162,0.164,0.246,0.238c0.094,0.082,0.188,0.158,0.289,0.229c0.425,0.299,0.904,0.483,1.438,0.476
			c0.521-0.011,0.987-0.208,1.398-0.521c0.097-0.074,0.188-0.148,0.278-0.233c0.081-0.075,0.16-0.157,0.236-0.241
			c0.661-0.732,1.126-1.737,1.38-2.557c0.245,0.042,0.804-0.272,0.907-0.721c0.106-0.46-0.011-0.887-0.261-0.953
			c-0.023-0.006-0.048-0.002-0.071,0c-0.021,0.021-0.036,0.025-0.043,0.018c0.001-0.003,0-0.016,0.002-0.02
			c-0.038,0.007-0.077,0.022-0.113,0.042l-0.01-0.565c-0.274-0.715-0.979-1.865-2.009-1.964c-0.311,0.723-0.942,1.273-1.988,0.95
			c-3.039-0.936-3.566,0.175-3.619,0.756l0.005,0.234c0.001,0.01,0.002,0.023,0.004,0.032c0,0.002-0.002,0.004-0.003,0.006
			l0.012,0.684c-0.078-0.038-0.153-0.053-0.229-0.03c-0.249,0.073-0.35,0.505-0.228,0.96c0.12,0.444,0.693,0.746,0.938,0.688
			C22.457,25.698,22.943,26.671,23.615,27.372z M22.139,28.274l2.796,3.141l0.396-1.7l-0.549-0.495l0.329-0.304
			c-0.662-0.103-1.25-0.437-1.756-0.905L22.139,28.274z M33.381,32.853l-0.531-2.901c-0.099-0.536-0.633-1.083-1.169-1.193
			l-2.003-0.412l-3.805,4.494c-0.054,0.062-0.131,0.101-0.212,0.103h-0.002c-0.083,0.001-0.161-0.034-0.216-0.098L21.5,28.413
			l-1.884,0.408c-0.533,0.115-1.062,0.668-1.155,1.206l-0.502,2.904c-0.039,0.229,0.012,0.443,0.146,0.604
			c0.133,0.156,0.334,0.242,0.567,0.241l2.736-0.017L21.4,32.261c0-0.155,0.124-0.281,0.279-0.285c0.002,0,0.003,0,0.004,0
			c0.156-0.003,0.285,0.127,0.286,0.282l0.008,1.498l7.396-0.038l-0.008-1.499c0-0.154,0.124-0.281,0.279-0.285
			c0.001,0,0.002,0,0.004,0c0.156-0.002,0.286,0.125,0.287,0.282l0.007,1.498l2.734-0.014l0.018,0.284L32.689,33.7
			c0.229-0.004,0.427-0.094,0.557-0.25C33.374,33.292,33.423,33.079,33.381,32.853z M25.273,13.942l-1.975-1.211l-0.458,0.746
			l3.233,1.985l1.984-3.234l-0.747-0.458l-1.195,1.948c-1.255-4.418-4.794-7.633-9.013-8.661l0.233,0.971
			C21.059,7.093,24.146,9.997,25.273,13.942z"/>
	</g>
</g>
<g>
</g>
<g>
</g>
<g>
</g>
<g>
</g>
<g>
</g>
<g>
</g>
<g>
</g>
<g>
</g>
<g>
</g>
<g>
</g>
<g>
</g>
<g>
</g>
<g>
</g>
<g>
</g>
<g>
</g>
</svg>
